<svg xmlns="http://www.w3.org/2000/svg" viewBox="0 0 157.82 83.16">
  <defs>
    <style>.cls-1{fill:#030b19;}</style>
  </defs>
  <g id="Layer_2" data-name="Layer 2">
    <g id="Layer_1-2" data-name="Layer 1">
      <path class="cls-1" d="M157.76,38.07c-.52-5.41-3.73-11.38-6.57-15.17-3-4-9.69-9.58-10-9.82a3.31,3.31,0,0,0-2.14-.77H139c-3.3-4.8-6.73-8-10.17-9.29a27.69,27.69,0,0,0-9.62-1.53h0a39,39,0,0,0-6.88.6C107.38,3,99.44,6.45,99.1,6.6A3.27,3.27,0,0,0,97.57,8c-5,.11-8.91,1.07-11.66,2.87a28,28,0,0,0-7.26,7.55c-2.22-4-5.84-8.87-10.05-11.49-2.66-1.66-6.38-2.52-11-2.59A3.36,3.36,0,0,0,55.11,2c-.35-.08-8.68-2-13.74-2h-.11c-4.73,0-11.43,1.07-16,3.92C22.47,5.61,20,8.66,17.82,13a3.25,3.25,0,0,0-1.06.58c-.28.23-7,5.73-10,9.76C3.87,27.05.62,33,.06,38.41s2.39,12.48,8.5,20.77a55.51,55.51,0,0,0,3.75,8.43c2.43,4.06,6.73,9.3,11.54,11.83A19.6,19.6,0,0,0,33,81.3a55.24,55.24,0,0,0,14-2.14,32.82,32.82,0,0,0,3.9.27h.09c4.73,0,11.43-1.06,16.06-3.9,3.84-2.36,7.18-7.41,9.85-14.8,1-.18,2-.4,3.09-.69,2.79,8.78,6.44,14.73,10.71,17.35,4.63,2.85,11.33,3.89,16.06,3.91h.09a38,38,0,0,0,5-.42,56.2,56.2,0,0,0,14.47,2.28,19.62,19.62,0,0,0,9.11-1.85c4.8-2.54,9.11-7.78,11.54-11.83,2.59-4.34,5.19-12.61,5.3-13a3.38,3.38,0,0,0,0-2.11C156.27,48,158.18,42.46,157.76,38.07ZM148.5,24.92c2.83,3.77,5.5,9.12,5.92,13.47.28,3-.9,7.56-4.78,13.75h0c-.57.92-1.21,1.87-1.9,2.86h0c-1.38,2-3,4-4.89,6.29,0,0-6.54-5-9.22-7.37a16.06,16.06,0,0,1-2.33-2.68c-.33-.46-.65-1-1-1.48v0c-.31-.53-.61-1.08-.89-1.67a23.13,23.13,0,0,1-2.19-8.68,25.64,25.64,0,0,1,0-3.29,21.22,21.22,0,0,0,6.14-1.28c3.44-1.36,10.66-4.9,11-5.05a3.36,3.36,0,0,0,1.6-4.34c-.94-2.22-1.92-4.28-2.9-6.2A48.59,48.59,0,0,1,148.5,24.92ZM115.3,54.33a28.8,28.8,0,0,0-5.47-4.85A26.07,26.07,0,0,0,96.34,45c.26-.71.5-1.44.73-2.2a28.47,28.47,0,0,0,6-2.7,26.34,26.34,0,0,0,8.45-8A27.56,27.56,0,0,0,115,34a26.81,26.81,0,0,0,8.92,2.16,28.37,28.37,0,0,0,0,3.45,26.57,26.57,0,0,0,2.17,9.21,28.06,28.06,0,0,0-4.91,1.78A26.14,26.14,0,0,0,115.3,54.33ZM113,5.39a36.9,36.9,0,0,1,6.28-.54,24.08,24.08,0,0,1,8.41,1.3c2.39.93,5.29,3.3,8.43,7.79h0c.3.44.61.89.92,1.37l0,0c.31.47.62,1,.93,1.48a80.58,80.58,0,0,1,5,9.92s-7.36,3.62-10.71,4.94a17.29,17.29,0,0,1-4.42,1h0c-.52,0-1.06.08-1.61.1h-.11c-.55,0-1.11,0-1.68,0a23.29,23.29,0,0,1-8-1.91,25.08,25.08,0,0,1-3.22-1.69,19.65,19.65,0,0,0,1.31-3.57c.9-3.59,2.22-11.53,2.27-11.86a3.36,3.36,0,0,0-2.59-3.83,87.58,87.58,0,0,0-10.19-1.68A55.79,55.79,0,0,1,113,5.39ZM87.76,13.66c2-1.29,5.15-2.21,9.85-2.32,1.07,0,2.21,0,3.44.05h0a77.21,77.21,0,0,1,12.36,1.81s-1.34,8.1-2.22,11.59a14.27,14.27,0,0,1-.84,2.38h0q-.31.72-.72,1.47h0c-.27.5-.57,1-.91,1.52a23.06,23.06,0,0,1-7.4,7,24.49,24.49,0,0,1-3.2,1.6,89,89,0,0,0,1.62-9.64A3.36,3.36,0,0,0,97,25.48c-.34-.06-8.27-1.4-12-1.71-.45,0-.93-.06-1.42-.06a22.05,22.05,0,0,0-2.66.19,3,3,0,0,0-.17-.83L80.33,22A27,27,0,0,1,87.76,13.66ZM43,51.69a26.46,26.46,0,0,0-4.9-3,28.7,28.7,0,0,0-5.42-1.92,26.7,26.7,0,0,0,1.25-6.65,29.51,29.51,0,0,0-.06-4.1,26.14,26.14,0,0,0,10.6-4.21c.33-.22.64-.47,1-.71a26.64,26.64,0,0,0,6.77,5.46,28.56,28.56,0,0,0,7.93,3,26.28,26.28,0,0,0-1.45,3.78,26.23,26.23,0,0,0-10.93,4.26A28.58,28.58,0,0,0,43,51.69ZM76.26,21.05c.11.22.22.45.33.7-.38.68-.72,1.35-1,2-.19.41-.38.85-.56,1.31a26.65,26.65,0,0,0-7.84,4.56,28.76,28.76,0,0,0-5.86,6.81,25.22,25.22,0,0,1-7.46-2.78A22.89,22.89,0,0,1,48,29h0A22.12,22.12,0,0,1,46,26.28h0a17.89,17.89,0,0,1-2.29-4.83C42.7,18,41.17,9.92,41.17,9.92A75.27,75.27,0,0,1,54,7.78h0c1.22-.08,2.36-.12,3.41-.1h0c4.46.05,7.52.88,9.44,2.08C70.53,12.07,74.14,16.84,76.26,21.05ZM27,6.78c3.72-2.29,9.6-3.4,14.31-3.42h.09A59.58,59.58,0,0,1,51.3,4.64a86.16,86.16,0,0,0-10.93,2,3.36,3.36,0,0,0-2.5,3.89c.06.33,1.57,8.24,2.56,11.8a21.1,21.1,0,0,0,2.92,6.1c-.26.19-.51.4-.78.58a23,23,0,0,1-9.32,3.68c-.51.08-1,.14-1.5.19h-.14c-.55.05-1.09.07-1.6.07h0a15.39,15.39,0,0,1-2.88-.26c-3.54-.68-11.44-2.9-11.44-2.9a75.37,75.37,0,0,1,4-12.89c.25-.59.51-1.15.76-1.69h0c.25-.53.51-1,.77-1.52h0C23.14,10.1,25.14,7.91,27,6.78Zm-23.56,32c.44-4.34,3.15-9.68,6-13.43a49.53,49.53,0,0,1,5.74-5.93,87.3,87.3,0,0,0-2.73,9.69,3.36,3.36,0,0,0,2.37,4c.33.1,8.08,2.27,11.71,3a19,19,0,0,0,3.56.32h.47a26.75,26.75,0,0,1,0,3.59,23.74,23.74,0,0,1-1.24,6.22h0a24,24,0,0,1-1.41,3.23h0a18.4,18.4,0,0,1-3.82,5.05c-2.7,2.38-9.27,7.3-9.27,7.3-1.69-2-3.16-3.93-4.43-5.72l-.73-1.07c-.12-.17-.24-.34-.35-.52C9,54,8.77,53.6,8.52,53.2c-.06-.08-.11-.17-.17-.26-.27-.43-.53-.85-.77-1.27C4.16,45.9,3.11,41.63,3.41,38.75Zm22,37.72c-3.87-2-7.81-6.54-10.23-10.58-.15-.26-.3-.53-.45-.82h.09a3.35,3.35,0,0,0,2-.67c.27-.2,6.71-5,9.48-7.48a22.24,22.24,0,0,0,5.08-7,25,25,0,0,1,5.24,1.8,22.82,22.82,0,0,1,4.15,2.53c.42.32.81.65,1.2,1l.25.23c.38.34.74.68,1.07,1h0a19.07,19.07,0,0,1,4.36,6.66C48.88,66.53,51,74.46,51,74.46c-1.61.52-3.13,1-4.59,1.36-.62.17-1.23.32-1.83.47l-.65.16-1.58.36-.83.17-1.28.24-1,.16-1,.16a38.74,38.74,0,0,1-5.26.4A16.24,16.24,0,0,1,25.42,76.47Zm39.78-3.8C62.27,74.47,58,75.52,54,75.9a3.35,3.35,0,0,0,.23-2.3c-.09-.33-2.16-8.11-3.4-11.59A22.88,22.88,0,0,0,45.5,53.9a25,25,0,0,1,4.12-3.5,23.19,23.19,0,0,1,8.26-3.49h0c.58-.12,1.15-.2,1.7-.27l.32,0c.44-.05.88-.08,1.31-.1s.62,0,.92,0a16,16,0,0,1,2.93.26c3.54.69,11.44,2.92,11.44,2.92-.69,3-1.43,5.72-2.21,8.1h0c-.21.62-.41,1.22-.62,1.8v0c-.21.58-.42,1.14-.63,1.67h0C70.49,67.63,67.69,71.13,65.2,72.67ZM78,57q.94-3.12,1.74-6.67a3.35,3.35,0,0,0-2.36-4c-.33-.09-8.08-2.27-11.71-3a18.26,18.26,0,0,0-3.4-.32,25,25,0,0,1,7.45-10.69,23.33,23.33,0,0,1,3.6-2.5h0a23.72,23.72,0,0,1,4.09-1.81h0a20.11,20.11,0,0,1,6.14-1.05c.4,0,.78,0,1.14,0,3.59.31,11.68,1.68,11.68,1.68a81.2,81.2,0,0,1-2,11.27c-.36,1.34-.73,2.56-1.12,3.68-1.68,4.77-3.69,7.66-5.62,9.15a20.87,20.87,0,0,1-5.48,2.89h0q-1.58.59-3.21,1h0Zm5.07,2a24.46,24.46,0,0,0,6.57-3.46,19.15,19.15,0,0,0,5.3-7.2l.47,0A22.75,22.75,0,0,1,108,52.26a25.24,25.24,0,0,1,5,4.39,22.11,22.11,0,0,0-4.5,7.22c-1.24,3.48-3.31,11.26-3.4,11.59a3.33,3.33,0,0,0,.28,2.43c-4.43-.21-9.55-1.29-12.91-3.36C89.39,72.7,86,68.05,83.1,59ZM144,67.75c-2.41,4-6.36,8.55-10.22,10.58a16.29,16.29,0,0,1-7.54,1.47,39.78,39.78,0,0,1-5.94-.5h0a67.68,67.68,0,0,1-8.16-1.8c-1.26-.35-2.56-.73-3.93-1.18,0,0,2.11-7.93,3.32-11.32a18.37,18.37,0,0,1,3.4-5.61A23,23,0,0,1,117.39,57a22.75,22.75,0,0,1,5.2-3.38,24.84,24.84,0,0,1,5.06-1.77,20.62,20.62,0,0,0,3.74,4.6c2.75,2.47,9.16,7.34,9.43,7.54a3.34,3.34,0,0,0,4.59-.5c.49-.57,1-1.13,1.4-1.69A42.46,42.46,0,0,1,144,67.75Z" />
    </g>
  </g>
</svg>