<svg xmlns="http://www.w3.org/2000/svg" viewBox="0 0 213.61 213.61"><defs><style>.cls-1{fill:#0351ff;}.cls-2{fill:#fff;}</style></defs><g id="Layer_2" data-name="Layer 2"><g id="Layer_1-2" data-name="Layer 1"><rect class="cls-1" width="213.61" height="213.61" rx="31.82"/><path class="cls-2" d="M90.69,57.35c2.11-3.86,7.37-11.87,7.59-12.21a4,4,0,0,1,5.36-1.25,102.84,102.84,0,0,1,11,7.33,70.41,70.41,0,0,0-7.42-9.32l-.08-.07c-4-3.88-10-7.81-15.06-8.93s-14.32.91-28.72,10.35c0,0,4.92,8.44,7.38,12A18,18,0,0,0,73,57.84a27,27,0,0,0,14,7c.39.07.76.09,1.15.15A25.26,25.26,0,0,1,90.69,57.35Z"/><path class="cls-2" d="M146.39,179.42a4,4,0,0,1-4.35-3.37c-.06-.4-1.5-9.87-1.81-14.26a25,25,0,0,1,.61-7,30.06,30.06,0,0,0-5.78-2.67c-7.7-2.62-15-1.32-18.88.62S104,159.64,104,159.64c4.55,8.57,8.8,14.29,12.54,17.91a19.34,19.34,0,0,0,7.65,5c5,1.46,12.09.88,17.5-.58a49.59,49.59,0,0,0,7.32-2.82Z"/><path class="cls-2" d="M174.84,165.44c3.24-4.06,5.4-10.85,6.1-16.41a56.32,56.32,0,0,0,.1-9.33q-1.11,3.69-2.65,7.71a4,4,0,0,1-5,2.38c-.38-.13-9.49-3.08-13.55-4.77a25.19,25.19,0,0,1-6.31-4,31.39,31.39,0,0,0-2.76,2.77c-5.34,6.13-6.89,13.34-6.58,17.7S146,175.44,146,175.44C163.13,173.74,171.6,169.51,174.84,165.44Z"/><path class="cls-2" d="M178.65,115.72a28.78,28.78,0,0,0-6.11-8.08,43.05,43.05,0,0,0-5.82-4.74,66.47,66.47,0,0,0-10.06-5,105.16,105.16,0,0,1,7.32,9.87,4,4,0,0,1-.95,5.42c-.33.24-8,5.94-11.76,8.26a23.66,23.66,0,0,1-4.06,1.95,31.71,31.71,0,0,0,1.32,4.12,27.55,27.55,0,0,0,6.29,9.31,22.28,22.28,0,0,0,6.59,4.52c4,1.65,13.24,4.65,13.24,4.65C180.82,129.91,180.82,120.44,178.65,115.72Z"/><path class="cls-2" d="M149.49,96c-4.46-4.33-8.23-6.36-11.14-6.92-4.73-.9-11.07.13-16.15,1.84a25.77,25.77,0,0,1,4.24,3.29c.42.4.81.81,1.17,1.22,2.89,3.32,8.56,11,8.8,11.36a4,4,0,0,1-.68,5.46,104,104,0,0,1-9.38,6.92,29.86,29.86,0,0,0,4.08,1.26c7.92,1.87,15-.13,18.73-2.43S160.65,110,160.65,110A83.68,83.68,0,0,0,149.49,96Z"/><path class="cls-2" d="M124.6,98.09c-.28-.32-.6-.65-.94-1a26.38,26.38,0,0,0-16.24-6.87,29.84,29.84,0,0,0-15.23,3,22.53,22.53,0,0,1,2.65,3.1c2.52,3.6,7.34,11.88,7.54,12.23a4,4,0,0,1-1.26,5.35c-2.42,1.59-4.76,3-7,4.26a31.38,31.38,0,0,0,11.62,4.39c5.17.58,14.15-2.42,27.46-13.34C133.19,109.19,127.41,101.32,124.6,98.09Z"/><path class="cls-2" d="M91.57,98.58a18.76,18.76,0,0,0-2.3-2.65,26.94,26.94,0,0,0-14-7,30.19,30.19,0,0,0-6.42-.43,27.11,27.11,0,0,1-2.15,11.36c-1.82,4-6.49,12.36-6.69,12.72a4,4,0,0,1-2.1,1.78c3.72,3,8.24,5.61,12.24,6.5,5.07,1.12,14.33-.9,28.73-10.33C98.93,110.54,94,102.1,91.57,98.58Z"/><path class="cls-2" d="M63.11,98.21c1.81-4,2.88-11.27,0-18.89a30.85,30.85,0,0,0-3-5.88A26.55,26.55,0,0,1,50,75.23c-4.4-.2-13.9-1.41-14.3-1.46a4,4,0,0,1-2.28-1.09.5.5,0,0,0-.07-.08c-.1.37-.2.73-.28,1.07-1.28,5.46-1.64,12.57,0,17.51a19.42,19.42,0,0,0,5.23,7.5c3.73,3.62,9.58,7.68,18.29,12C56.57,110.64,61.34,102.11,63.11,98.21Z"/><path class="cls-2" d="M70.23,60.71a22.35,22.35,0,0,1-2.77-3.21c-2.52-3.61-7.35-11.88-7.55-12.23a4,4,0,0,1,1.26-5.36,104.68,104.68,0,0,1,10.36-6,60,60,0,0,0-9.81.32c-5.54.85-12.28,3.17-16.25,6.52s-8,11.92-9.27,29.09c0,0,9.69,1.23,14,1.42s11.54-1.54,17.53-7a31.45,31.45,0,0,0,2.94-3.1Z"/><path class="cls-2" d="M117,58.5c4,3.88,6,7.25,6.69,10,1.25,5,.38,12.11-1.29,17.46a36,36,0,0,1-1.49,3.8,31.77,31.77,0,0,0-13.36-4,34.22,34.22,0,0,0-10.65,1,30.17,30.17,0,0,1-4.08-8.56c-2.3-7.8-.7-15,1.39-18.84s7.42-11.92,7.42-11.92A80.64,80.64,0,0,1,117,58.5"/><path class="cls-2" d="M101.91,156.21c.35-.21,8.56-5.14,12.5-7.08a26.17,26.17,0,0,1,9.8-2.45,29.57,29.57,0,0,0-.58-7.85,26.9,26.9,0,0,0-7.43-13.72c-.14-.14-.27-.24-.41-.37a23,23,0,0,1-10.5,1.76A29.41,29.41,0,0,1,96.8,124c-5,10.11-6,16.9-4.92,20.94,1.16,4.55,4.64,9.72,8.26,13.56A4,4,0,0,1,101.91,156.21Z"/></g></g></svg>